<svg id="Ebene_1" data-name="Ebene 1" xmlns="http://www.w3.org/2000/svg" xmlns:xlink="http://www.w3.org/1999/xlink" viewBox="0 0 301.13 306.81"><defs><style>.cls-1{fill:none;}.cls-2{clip-path:url(#clip-path);}.cls-3{fill:#fff;}.cls-4{font-size:24px;font-family:Abyssopelagic, Abyssopelagic;}.cls-5{font-size:12px;fill:#1d1d1b;font-family:MyriadPro-Regular, Myriad Pro;}</style><clipPath id="clip-path" transform="translate(-78.26 -52.26)"><rect class="cls-1" x="51.36" y="57.6" width="328.39" height="301.01"/></clipPath></defs><title>wordClockAbyssopelagic2</title><g class="cls-2"><rect class="cls-3" y="4.86" width="301.13" height="301.13"/><text class="cls-4" transform="translate(8.88 27.32)">E</text><text class="cls-4" transform="translate(36.24 27.32)">S</text><text class="cls-4" transform="translate(63.6 27.32)">Y</text><text class="cls-4" transform="translate(95.64 27.32)">I</text><text class="cls-4" transform="translate(118.35 27.32)">S</text><text class="cls-4" transform="translate(145.71 27.32)">T</text><text class="cls-4" transform="translate(173.07 27.32)">Z</text><text class="cls-4" transform="translate(200.43 27.32)">F</text><text class="cls-4" transform="translate(227.79 27.32)">U</text><text class="cls-4" transform="translate(255.17 27.32)">N</text><text class="cls-4" transform="translate(282.53 27.32)">F</text><text class="cls-4" transform="translate(8.88 54.68)">Z</text><text class="cls-4" transform="translate(36.24 54.68)">E</text><text class="cls-4" transform="translate(63.6 54.68)">H</text><text class="cls-4" transform="translate(90.96 54.68)">N</text><text class="cls-4" transform="translate(115.71 54.68)">V</text><text class="cls-4" transform="translate(150.39 54.68)">I</text><text class="cls-4" transform="translate(173.07 54.68)">E</text><text class="cls-4" transform="translate(200.43 54.68)">R</text><text class="cls-4" transform="translate(227.79 54.68)">T</text><text class="cls-4" transform="translate(255.17 54.68)">E</text><text class="cls-4" transform="translate(282.53 54.68)">L</text><text class="cls-4" transform="translate(8.88 82.04)">U</text><text class="cls-4" transform="translate(40.92 82.04)">I</text><text class="cls-4" transform="translate(63.6 82.04)">Z</text><text class="cls-4" transform="translate(88.32 82.04)">W</text><text class="cls-4" transform="translate(115.95 82.04)">A</text><text class="cls-4" transform="translate(145.71 82.04)">N</text><text class="cls-4" transform="translate(173.07 82.04)">Z</text><text class="cls-4" transform="translate(205.11 82.04)">I</text><text class="cls-4" transform="translate(226.59 82.04)">G</text><text class="cls-4" transform="translate(255.17 82.04)">L</text><text class="cls-4" transform="translate(282.53 82.04)">S</text><text class="cls-4" transform="translate(6.36 109.4)">M</text><text class="cls-4" transform="translate(40.92 109.4)">I</text><text class="cls-4" transform="translate(63.6 109.4)">N</text><text class="cls-4" transform="translate(90.96 109.4)">U</text><text class="cls-4" transform="translate(118.35 109.4)">T</text><text class="cls-4" transform="translate(145.71 109.4)">E</text><text class="cls-4" transform="translate(173.07 109.4)">N</text><text class="cls-4" transform="translate(200.43 109.4)">S</text><text class="cls-4" transform="translate(225.15 109.4)">V</text><text class="cls-4" transform="translate(252.53 109.4)">O</text><text class="cls-4" transform="translate(282.53 109.4)">R</text><text class="cls-4" transform="translate(7.68 136.76)">D</text><text class="cls-4" transform="translate(36.24 136.76)">N</text><text class="cls-4" transform="translate(61.2 136.76)">A</text><text class="cls-4" transform="translate(89.16 136.76)">C</text><text class="cls-4" transform="translate(118.35 136.76)">H</text><text class="cls-4" transform="translate(144.51 136.76)">G</text><text class="cls-4" transform="translate(173.07 136.76)">F</text><text class="cls-4" transform="translate(200.43 136.76)">H</text><text class="cls-4" transform="translate(225.39 136.76)">A</text><text class="cls-4" transform="translate(255.17 136.76)">L</text><text class="cls-4" transform="translate(282.89 136.76)">B</text><text class="cls-4" transform="translate(8.88 164.12)">Z</text><text class="cls-4" transform="translate(36.24 164.12)">E</text><text class="cls-4" transform="translate(63.6 164.12)">H</text><text class="cls-4" transform="translate(90.96 164.12)">N</text><text class="cls-4" transform="translate(115.71 164.12)">W</text><text class="cls-4" transform="translate(150.39 164.12)">I</text><text class="cls-4" transform="translate(173.07 164.12)">F</text><text class="cls-4" transform="translate(205.11 164.12)">I</text><text class="cls-4" transform="translate(227.79 164.12)">E</text><text class="cls-4" transform="translate(255.17 164.12)">L</text><text class="cls-4" transform="translate(282.53 164.12)">F</text><text class="cls-4" transform="translate(6.48 191.51)">A</text><text class="cls-4" transform="translate(34.44 191.51)">C</text><text class="cls-4" transform="translate(63.6 191.51)">H</text><text class="cls-4" transform="translate(90.96 191.51)">T</text><text class="cls-4" transform="translate(118.35 191.51)">Z</text><text class="cls-4" transform="translate(145.71 191.51)">N</text><text class="cls-4" transform="translate(173.07 191.51)">E</text><text class="cls-4" transform="translate(200.43 191.51)">U</text><text class="cls-4" transform="translate(227.79 191.51)">N</text><text class="cls-4" transform="translate(253.97 191.51)">D</text><text class="cls-4" transform="translate(282.53 191.51)">S</text><text class="cls-4" transform="translate(8.88 218.87)">S</text><text class="cls-4" transform="translate(40.92 218.87)">I</text><text class="cls-4" transform="translate(63.6 218.87)">E</text><text class="cls-4" transform="translate(91.32 218.87)">B</text><text class="cls-4" transform="translate(118.35 218.87)">E</text><text class="cls-4" transform="translate(145.71 218.87)">N</text><text class="cls-4" transform="translate(173.43 218.87)">B</text><text class="cls-4" transform="translate(200.43 218.87)">Z</text><text class="cls-4" transform="translate(225.15 218.87)">W</text><text class="cls-4" transform="translate(255.17 218.87)">E</text><text class="cls-4" transform="translate(287.21 218.87)">I</text><text class="cls-4" transform="translate(7.68 246.23)">D</text><text class="cls-4" transform="translate(36.24 246.23)">F</text><text class="cls-4" transform="translate(63.6 246.23)">F</text><text class="cls-4" transform="translate(90.96 246.23)">U</text><text class="cls-4" transform="translate(118.35 246.23)">N</text><text class="cls-4" transform="translate(145.71 246.23)">F</text><text class="cls-4" transform="translate(173.07 246.23)">S</text><text class="cls-4" transform="translate(200.43 246.23)">E</text><text class="cls-4" transform="translate(225.99 246.23)">C</text><text class="cls-4" transform="translate(255.17 246.23)">H</text><text class="cls-4" transform="translate(282.53 246.23)">S</text><text class="cls-4" transform="translate(8.88 273.59)">E</text><text class="cls-4" transform="translate(40.92 273.59)">I</text><text class="cls-4" transform="translate(63.6 273.59)">N</text><text class="cls-4" transform="translate(89.76 273.59)">D</text><text class="cls-4" transform="translate(118.35 273.59)">R</text><text class="cls-4" transform="translate(145.71 273.59)">E</text><text class="cls-4" transform="translate(177.75 273.59)">I</text><text class="cls-4" transform="translate(197.79 273.59)">V</text><text class="cls-4" transform="translate(232.47 273.59)">I</text><text class="cls-4" transform="translate(255.17 273.59)">E</text><text class="cls-4" transform="translate(282.53 273.59)">R</text><text class="cls-4" transform="translate(8.88 300.95)">Z</text><text class="cls-4" transform="translate(33.6 300.95)">W</text><text class="cls-4" transform="translate(60.96 300.95)">O</text><text class="cls-4" transform="translate(90.96 300.95)">L</text><text class="cls-4" transform="translate(118.35 300.95)">F</text><text class="cls-4" transform="translate(143.07 300.95)">W</text><text class="cls-4" transform="translate(173.07 300.95)">T</text><text class="cls-4" transform="translate(200.43 300.95)">F</text><text class="cls-4" transform="translate(227.79 300.95)">U</text><text class="cls-4" transform="translate(255.17 300.95)">H</text><text class="cls-4" transform="translate(282.53 300.95)">R</text></g><text class="cls-5" transform="translate(229.03 10.04)">. .</text><text class="cls-5" transform="translate(92.11 229.04)">. .</text><text class="cls-5" transform="translate(64.44 283.71)">. .</text></svg>