<svg id="Ebene_1" data-name="Ebene 1" xmlns="http://www.w3.org/2000/svg" viewBox="0 0 301.13 302.99"><defs><style>.cls-1{fill:#fff;}.cls-2{font-size:11.04px;font-family:MANIFESTO, MANIFESTO;}.cls-3{font-size:12px;fill:#1d1d1b;font-family:MyriadPro-Regular, Myriad Pro;}</style></defs><title>wordClockMANIFESTO</title><rect class="cls-1" y="1.86" width="301.13" height="301.13"/><text class="cls-2" transform="translate(8.75 19.35)">E</text><text class="cls-2" transform="translate(37.06 19.35)">S</text><text class="cls-2" transform="translate(63.46 19.35)">Y</text><text class="cls-2" transform="translate(93.46 19.35)">I</text><text class="cls-2" transform="translate(119.17 19.35)">S</text><text class="cls-2" transform="translate(145.57 19.35)">T</text><text class="cls-2" transform="translate(172.93 19.35)">Z</text><text class="cls-2" transform="translate(200.29 19.35)">F</text><text class="cls-2" transform="translate(227.65 19.35)">U</text><text class="cls-2" transform="translate(255.03 19.35)">N</text><text class="cls-2" transform="translate(282.39 19.35)">F</text><text class="cls-2" transform="translate(8.75 46.71)">Z</text><text class="cls-2" transform="translate(36.1 46.71)">E</text><text class="cls-2" transform="translate(63.46 46.71)">H</text><text class="cls-2" transform="translate(90.82 46.71)">N</text><text class="cls-2" transform="translate(118.21 46.71)">V</text><text class="cls-2" transform="translate(148.21 46.71)">I</text><text class="cls-2" transform="translate(172.93 46.71)">E</text><text class="cls-2" transform="translate(200.29 46.71)">R</text><text class="cls-2" transform="translate(227.65 46.71)">T</text><text class="cls-2" transform="translate(255.03 46.71)">E</text><text class="cls-2" transform="translate(283.35 46.71)">L</text><text class="cls-2" transform="translate(8.75 74.07)">U</text><text class="cls-2" transform="translate(38.74 74.07)">I</text><text class="cls-2" transform="translate(63.46 74.07)">Z</text><text class="cls-2" transform="translate(89.26 74.07)">W</text><text class="cls-2" transform="translate(118.21 74.07)">A</text><text class="cls-2" transform="translate(145.57 74.07)">N</text><text class="cls-2" transform="translate(172.93 74.07)">Z</text><text class="cls-2" transform="translate(202.93 74.07)">I</text><text class="cls-2" transform="translate(226.57 74.07)">G</text><text class="cls-2" transform="translate(255.99 74.07)">L</text><text class="cls-2" transform="translate(283.35 74.07)">S</text><text class="cls-2" transform="translate(7.67 101.43)">M</text><text class="cls-2" transform="translate(38.74 101.43)">I</text><text class="cls-2" transform="translate(63.46 101.43)">N</text><text class="cls-2" transform="translate(90.82 101.43)">U</text><text class="cls-2" transform="translate(118.21 101.43)">T</text><text class="cls-2" transform="translate(145.57 101.43)">E</text><text class="cls-2" transform="translate(172.93 101.43)">N</text><text class="cls-2" transform="translate(201.25 101.43)">S</text><text class="cls-2" transform="translate(227.65 101.43)">V</text><text class="cls-2" transform="translate(253.95 101.43)">O</text><text class="cls-2" transform="translate(282.39 101.43)">R</text><text class="cls-2" transform="translate(8.75 128.79)">D</text><text class="cls-2" transform="translate(36.1 128.79)">N</text><text class="cls-2" transform="translate(63.46 128.79)">A</text><text class="cls-2" transform="translate(90.34 128.79)">C</text><text class="cls-2" transform="translate(118.21 128.79)">H</text><text class="cls-2" transform="translate(144.49 128.79)">G</text><text class="cls-2" transform="translate(172.93 128.79)">F</text><text class="cls-2" transform="translate(200.29 128.79)">H</text><text class="cls-2" transform="translate(227.65 128.79)">A</text><text class="cls-2" transform="translate(255.99 128.79)">L</text><text class="cls-2" transform="translate(282.39 128.79)">B</text><text class="cls-2" transform="translate(8.75 156.15)">Z</text><text class="cls-2" transform="translate(36.1 156.15)">E</text><text class="cls-2" transform="translate(63.46 156.15)">H</text><text class="cls-2" transform="translate(90.82 156.15)">N</text><text class="cls-2" transform="translate(116.65 156.15)">W</text><text class="cls-2" transform="translate(148.21 156.15)">I</text><text class="cls-2" transform="translate(172.93 156.15)">F</text><text class="cls-2" transform="translate(202.93 156.15)">I</text><text class="cls-2" transform="translate(227.65 156.15)">E</text><text class="cls-2" transform="translate(255.99 156.15)">L</text><text class="cls-2" transform="translate(282.39 156.15)">F</text><text class="cls-2" transform="translate(8.75 183.51)">A</text><text class="cls-2" transform="translate(35.62 183.51)">C</text><text class="cls-2" transform="translate(63.46 183.51)">H</text><text class="cls-2" transform="translate(90.82 183.51)">T</text><text class="cls-2" transform="translate(118.21 183.51)">Z</text><text class="cls-2" transform="translate(145.57 183.51)">N</text><text class="cls-2" transform="translate(172.93 183.51)">E</text><text class="cls-2" transform="translate(200.29 183.51)">U</text><text class="cls-2" transform="translate(227.65 183.51)">N</text><text class="cls-2" transform="translate(255.03 183.51)">D</text><text class="cls-2" transform="translate(283.35 183.51)">S</text><text class="cls-2" transform="translate(9.71 210.9)">S</text><text class="cls-2" transform="translate(38.74 210.9)">I</text><text class="cls-2" transform="translate(63.46 210.9)">E</text><text class="cls-2" transform="translate(90.82 210.9)">B</text><text class="cls-2" transform="translate(118.21 210.9)">E</text><text class="cls-2" transform="translate(145.57 210.9)">N</text><text class="cls-2" transform="translate(172.93 210.9)">B</text><text class="cls-2" transform="translate(200.29 210.9)">Z</text><text class="cls-2" transform="translate(226.09 210.9)">W</text><text class="cls-2" transform="translate(255.03 210.9)">E</text><text class="cls-2" transform="translate(285.03 210.9)">I</text><text class="cls-2" transform="translate(8.75 238.26)">D</text><text class="cls-2" transform="translate(36.1 238.26)">F</text><text class="cls-2" transform="translate(63.46 238.26)">F</text><text class="cls-2" transform="translate(90.82 238.26)">U</text><text class="cls-2" transform="translate(118.21 238.26)">N</text><text class="cls-2" transform="translate(145.57 238.26)">F</text><text class="cls-2" transform="translate(173.89 238.26)">S</text><text class="cls-2" transform="translate(200.29 238.26)">E</text><text class="cls-2" transform="translate(227.17 238.26)">C</text><text class="cls-2" transform="translate(255.03 238.26)">H</text><text class="cls-2" transform="translate(283.35 238.26)">S</text><text class="cls-2" transform="translate(8.75 265.62)">E</text><text class="cls-2" transform="translate(38.74 265.62)">I</text><text class="cls-2" transform="translate(63.46 265.62)">N</text><text class="cls-2" transform="translate(90.82 265.62)">D</text><text class="cls-2" transform="translate(118.21 265.62)">R</text><text class="cls-2" transform="translate(145.57 265.62)">E</text><text class="cls-2" transform="translate(175.57 265.62)">I</text><text class="cls-2" transform="translate(200.29 265.62)">V</text><text class="cls-2" transform="translate(230.29 265.62)">I</text><text class="cls-2" transform="translate(255.03 265.62)">E</text><text class="cls-2" transform="translate(282.39 265.62)">R</text><text class="cls-2" transform="translate(8.75 292.98)">Z</text><text class="cls-2" transform="translate(34.54 292.98)">W</text><text class="cls-2" transform="translate(62.38 292.98)">O</text><text class="cls-2" transform="translate(91.78 292.98)">L</text><text class="cls-2" transform="translate(118.21 292.98)">F</text><text class="cls-2" transform="translate(144.01 292.98)">W</text><text class="cls-2" transform="translate(172.93 292.98)">T</text><text class="cls-2" transform="translate(200.29 292.98)">F</text><text class="cls-2" transform="translate(227.65 292.98)">U</text><text class="cls-2" transform="translate(255.03 292.98)">H</text><text class="cls-2" transform="translate(282.39 292.98)">R</text><text class="cls-3" transform="translate(229.07 10.04)">..</text><text class="cls-3" transform="translate(92.46 229.11)">..</text><text class="cls-3" transform="translate(64.96 284.27)">..</text></svg>