<svg id="Ebene_1" data-name="Ebene 1" xmlns="http://www.w3.org/2000/svg" xmlns:xlink="http://www.w3.org/1999/xlink" viewBox="0 0 279.69 294.76"><defs><style>.cls-1{fill:none;}.cls-2{clip-path:url(#clip-path);}.cls-3{font-size:11.04px;font-family:Abyssopelagic, Abyssopelagic;}.cls-4{font-size:12px;fill:#1d1d1b;font-family:MyriadPro-Regular, Myriad Pro;}</style><clipPath id="clip-path" transform="translate(-88.82 -56.46)"><rect class="cls-1" x="51.36" y="57.6" width="328.39" height="301.01"/></clipPath></defs><title>wordClockAbyssopelagic</title><g class="cls-2"><text class="cls-3" transform="translate(1.2 18.44)">E</text><text class="cls-3" transform="translate(28.56 18.44)">S</text><text class="cls-3" transform="translate(55.92 18.44)">Y</text><text class="cls-3" transform="translate(85.44 18.44)">I</text><text class="cls-3" transform="translate(110.67 18.44)">S</text><text class="cls-3" transform="translate(138.03 18.44)">T</text><text class="cls-3" transform="translate(165.39 18.44)">Z</text><text class="cls-3" transform="translate(192.75 18.44)">F</text><text class="cls-3" transform="translate(220.11 18.44)">U</text><text class="cls-3" transform="translate(247.49 18.44)">N</text><text class="cls-3" transform="translate(274.85 18.44)">F</text><text class="cls-3" transform="translate(1.2 45.8)">Z</text><text class="cls-3" transform="translate(28.56 45.8)">E</text><text class="cls-3" transform="translate(55.92 45.8)">H</text><text class="cls-3" transform="translate(83.28 45.8)">N</text><text class="cls-3" transform="translate(109.47 45.8)">V</text><text class="cls-3" transform="translate(140.19 45.8)">I</text><text class="cls-3" transform="translate(165.39 45.8)">E</text><text class="cls-3" transform="translate(192.75 45.8)">R</text><text class="cls-3" transform="translate(220.11 45.8)">T</text><text class="cls-3" transform="translate(247.49 45.8)">E</text><text class="cls-3" transform="translate(274.85 45.8)">L</text><text class="cls-3" transform="translate(1.2 73.16)">U</text><text class="cls-3" transform="translate(30.72 73.16)">I</text><text class="cls-3" transform="translate(55.92 73.16)">Z</text><text class="cls-3" transform="translate(82.08 73.16)">W</text><text class="cls-3" transform="translate(109.59 73.16)">A</text><text class="cls-3" transform="translate(138.03 73.16)">N</text><text class="cls-3" transform="translate(165.39 73.16)">Z</text><text class="cls-3" transform="translate(194.91 73.16)">I</text><text class="cls-3" transform="translate(219.51 73.16)">G</text><text class="cls-3" transform="translate(247.49 73.16)">L</text><text class="cls-3" transform="translate(274.85 73.16)">S</text><text class="cls-3" transform="translate(0 100.52)">M</text><text class="cls-3" transform="translate(30.72 100.52)">I</text><text class="cls-3" transform="translate(55.92 100.52)">N</text><text class="cls-3" transform="translate(83.28 100.52)">U</text><text class="cls-3" transform="translate(110.67 100.52)">T</text><text class="cls-3" transform="translate(138.03 100.52)">E</text><text class="cls-3" transform="translate(165.39 100.52)">N</text><text class="cls-3" transform="translate(192.75 100.52)">S</text><text class="cls-3" transform="translate(218.91 100.52)">V</text><text class="cls-3" transform="translate(246.29 100.52)">O</text><text class="cls-3" transform="translate(274.85 100.52)">R</text><text class="cls-3" transform="translate(0.6 127.88)">D</text><text class="cls-3" transform="translate(28.56 127.88)">N</text><text class="cls-3" transform="translate(54.84 127.88)">A</text><text class="cls-3" transform="translate(82.44 127.88)">C</text><text class="cls-3" transform="translate(110.67 127.88)">H</text><text class="cls-3" transform="translate(137.43 127.88)">G</text><text class="cls-3" transform="translate(165.39 127.88)">F</text><text class="cls-3" transform="translate(192.75 127.88)">H</text><text class="cls-3" transform="translate(219.03 127.88)">A</text><text class="cls-3" transform="translate(247.49 127.88)">L</text><text class="cls-3" transform="translate(274.97 127.88)">B</text><text class="cls-3" transform="translate(1.2 155.24)">Z</text><text class="cls-3" transform="translate(28.56 155.24)">E</text><text class="cls-3" transform="translate(55.92 155.24)">H</text><text class="cls-3" transform="translate(83.28 155.24)">N</text><text class="cls-3" transform="translate(109.47 155.24)">W</text><text class="cls-3" transform="translate(140.19 155.24)">I</text><text class="cls-3" transform="translate(165.39 155.24)">F</text><text class="cls-3" transform="translate(194.91 155.24)">I</text><text class="cls-3" transform="translate(220.11 155.24)">E</text><text class="cls-3" transform="translate(247.49 155.24)">L</text><text class="cls-3" transform="translate(274.85 155.24)">F</text><text class="cls-3" transform="translate(0.12 182.63)">A</text><text class="cls-3" transform="translate(27.72 182.63)">C</text><text class="cls-3" transform="translate(55.92 182.63)">H</text><text class="cls-3" transform="translate(83.28 182.63)">T</text><text class="cls-3" transform="translate(110.67 182.63)">Z</text><text class="cls-3" transform="translate(138.03 182.63)">N</text><text class="cls-3" transform="translate(165.39 182.63)">E</text><text class="cls-3" transform="translate(192.75 182.63)">U</text><text class="cls-3" transform="translate(220.11 182.63)">N</text><text class="cls-3" transform="translate(246.89 182.63)">D</text><text class="cls-3" transform="translate(274.85 182.63)">S</text><text class="cls-3" transform="translate(1.2 209.99)">S</text><text class="cls-3" transform="translate(30.72 209.99)">I</text><text class="cls-3" transform="translate(55.92 209.99)">E</text><text class="cls-3" transform="translate(83.4 209.99)">B</text><text class="cls-3" transform="translate(110.67 209.99)">E</text><text class="cls-3" transform="translate(138.03 209.99)">N</text><text class="cls-3" transform="translate(165.51 209.99)">B</text><text class="cls-3" transform="translate(192.75 209.99)">Z</text><text class="cls-3" transform="translate(218.91 209.99)">W</text><text class="cls-3" transform="translate(247.49 209.99)">E</text><text class="cls-3" transform="translate(277.01 209.99)">I</text><text class="cls-3" transform="translate(0.6 237.35)">D</text><text class="cls-3" transform="translate(28.56 237.35)">F</text><text class="cls-3" transform="translate(55.92 237.35)">F</text><text class="cls-3" transform="translate(83.28 237.35)">U</text><text class="cls-3" transform="translate(110.67 237.35)">N</text><text class="cls-3" transform="translate(138.03 237.35)">F</text><text class="cls-3" transform="translate(165.39 237.35)">S</text><text class="cls-3" transform="translate(192.75 237.35)">E</text><text class="cls-3" transform="translate(219.27 237.35)">C</text><text class="cls-3" transform="translate(247.49 237.35)">H</text><text class="cls-3" transform="translate(274.85 237.35)">S</text><text class="cls-3" transform="translate(1.2 264.71)">E</text><text class="cls-3" transform="translate(30.72 264.71)">I</text><text class="cls-3" transform="translate(55.92 264.71)">N</text><text class="cls-3" transform="translate(82.68 264.71)">D</text><text class="cls-3" transform="translate(110.67 264.71)">R</text><text class="cls-3" transform="translate(138.03 264.71)">E</text><text class="cls-3" transform="translate(167.55 264.71)">I</text><text class="cls-3" transform="translate(191.55 264.71)">V</text><text class="cls-3" transform="translate(222.27 264.71)">I</text><text class="cls-3" transform="translate(247.49 264.71)">E</text><text class="cls-3" transform="translate(274.85 264.71)">R</text><text class="cls-3" transform="translate(1.2 292.07)">Z</text><text class="cls-3" transform="translate(27.36 292.07)">W</text><text class="cls-3" transform="translate(54.72 292.07)">O</text><text class="cls-3" transform="translate(83.28 292.07)">L</text><text class="cls-3" transform="translate(110.67 292.07)">F</text><text class="cls-3" transform="translate(136.83 292.07)">W</text><text class="cls-3" transform="translate(165.39 292.07)">T</text><text class="cls-3" transform="translate(192.75 292.07)">F</text><text class="cls-3" transform="translate(220.11 292.07)">U</text><text class="cls-3" transform="translate(247.49 292.07)">H</text><text class="cls-3" transform="translate(274.85 292.07)">R</text></g><text class="cls-4" transform="translate(82.93 228.67)">..</text><text class="cls-4" transform="translate(55.68 283.75)">..</text><text class="cls-4" transform="translate(219.86 10.04)">..</text></svg>