<svg xmlns="http://www.w3.org/2000/svg" viewBox="0 0 296.66 143.25"><defs><style>.cls-1,.cls-25{fill:#fff;}.cls-1{stroke:#000;}.cls-1,.cls-10,.cls-11,.cls-12,.cls-13,.cls-14,.cls-15,.cls-16,.cls-17,.cls-18,.cls-19,.cls-2,.cls-20,.cls-21,.cls-22,.cls-23,.cls-3,.cls-4,.cls-5,.cls-6,.cls-7,.cls-8,.cls-9{stroke-miterlimit:10;}.cls-2{fill:#f3f3f3;stroke:#0c0c0c;}.cls-3{fill:#e8e8e8;stroke:#171717;}.cls-4{fill:#dcdcdc;stroke:#232323;}.cls-5{fill:#d1d1d1;stroke:#2e2e2e;}.cls-6{fill:#c5c5c5;stroke:#3a3a3a;}.cls-7{fill:#b9b9b9;stroke:#464646;}.cls-8{fill:#aeaeae;stroke:#515151;}.cls-9{fill:#a2a2a2;stroke:#5d5d5d;}.cls-10{fill:#979797;stroke:#686868;}.cls-11{fill:#8b8b8b;stroke:#747474;}.cls-12{fill:#7f7f7f;stroke:gray;}.cls-13{fill:#747474;stroke:#8b8b8b;}.cls-14{fill:#686868;stroke:#979797;}.cls-15{fill:#5d5d5d;stroke:#a2a2a2;}.cls-16{fill:#515151;stroke:#aeaeae;}.cls-17{fill:#464646;stroke:#b9b9b9;}.cls-18{fill:#3a3a3a;stroke:#c5c5c5;}.cls-19{fill:#2e2e2e;stroke:#d1d1d1;}.cls-20{fill:#232323;stroke:#dcdcdc;}.cls-21{fill:#171717;stroke:#e8e8e8;}.cls-22{fill:#0c0c0c;stroke:#f3f3f3;}.cls-23{stroke:#fff;}.cls-24{fill:none;}.cls-25,.cls-26{font-size:27px;font-family:MANIFESTO, MANIFESTO;}</style></defs><title>Element 1</title><g id="Ebene_2" data-name="Ebene 2"><g id="Ebene_1-2" data-name="Ebene 1"><circle class="cls-1" cx="19.25" cy="124" r="18.75"/><circle class="cls-2" cx="19.25" cy="120.03" r="18.75"/><circle class="cls-3" cx="19.25" cy="116.05" r="18.75"/><circle class="cls-4" cx="19.25" cy="112.08" r="18.75"/><circle class="cls-5" cx="19.25" cy="108.11" r="18.75"/><circle class="cls-6" cx="19.25" cy="104.13" r="18.75"/><circle class="cls-7" cx="19.25" cy="100.16" r="18.75"/><circle class="cls-8" cx="19.25" cy="96.19" r="18.75"/><circle class="cls-9" cx="19.25" cy="92.21" r="18.75"/><circle class="cls-10" cx="19.25" cy="88.24" r="18.75"/><circle class="cls-11" cx="19.25" cy="84.27" r="18.75"/><circle class="cls-12" cx="19.25" cy="80.29" r="18.75"/><circle class="cls-13" cx="19.25" cy="76.32" r="18.75"/><circle class="cls-14" cx="19.25" cy="72.35" r="18.75"/><circle class="cls-15" cx="19.25" cy="68.37" r="18.75"/><circle class="cls-16" cx="19.25" cy="64.4" r="18.75"/><circle class="cls-17" cx="19.25" cy="60.42" r="18.75"/><circle class="cls-18" cx="19.25" cy="56.45" r="18.75"/><circle class="cls-19" cx="19.25" cy="52.48" r="18.75"/><circle class="cls-20" cx="19.25" cy="48.5" r="18.75"/><circle class="cls-21" cx="19.25" cy="44.53" r="18.75"/><circle class="cls-22" cx="19.25" cy="40.56" r="18.75"/><circle class="cls-23" cx="19.25" cy="36.58" r="18.75"/><line class="cls-24" x1="19.25" y1="36.58" x2="19.25" y2="124"/><line class="cls-24" x1="19.25" x2="19.25" y2="110.67"/><line class="cls-24" x1="57.25" x2="57.25" y2="110.67"/><line class="cls-24" x1="95.25" x2="95.25" y2="110.67"/><line class="cls-24" x1="133.25" x2="133.25" y2="110.67"/><line class="cls-24" x1="171.25" x2="171.25" y2="110.67"/><line class="cls-24" x1="209.25" x2="209.25" y2="110.67"/><line class="cls-24" x1="247.25" x2="247.25" y2="110.67"/><line class="cls-24" x1="285.25" x2="285.25" y2="110.67"/><text class="cls-25" transform="translate(10.75 46.42) scale(1.13 1)">L</text><text class="cls-26" transform="translate(46.13 48.04) scale(1.13 1)">E</text><text class="cls-26" transform="translate(86.25 47.17) scale(1.13 1)">S</text><text class="cls-26" transform="translate(121.5 47.92) scale(1.13 1)">E</text><text class="cls-26" transform="translate(159.5 47.67) scale(1.13 1)">Z</text><text class="cls-26" transform="translate(198.33 47.17) scale(1.13 1)">E</text><text class="cls-26" transform="translate(243.67 48.17) scale(1.13 1)">I</text><text class="cls-26" transform="translate(273.92 48.67) scale(1.13 1)">T</text></g></g></svg>