<svg xmlns="http://www.w3.org/2000/svg" viewBox="0 0 129.24 131.8"><defs><style>.cls-1{fill:#404040;stroke-width:0.06px;}.cls-1,.cls-2,.cls-3,.cls-4{stroke:#000;stroke-miterlimit:10;}.cls-2{fill:gray;stroke-width:0.13px;}.cls-3{fill:#bfbfbf;stroke-width:0.19px;}.cls-4{fill:#fff;stroke-width:0.25px;}</style></defs><title>Element 4</title><g id="Ebene_2" data-name="Ebene 2"><g id="Ebene_1-2" data-name="Ebene 1"><circle cx="6.55" cy="125.25" r="6.55"/><circle class="cls-1" cx="7.67" cy="124.09" r="6.55"/><circle class="cls-2" cx="8.8" cy="122.94" r="6.55"/><circle class="cls-3" cx="9.92" cy="121.78" r="6.55"/><circle class="cls-4" cx="11.04" cy="120.62" r="6.55"/><circle cx="6.55" cy="106.36" r="6.55"/><circle class="cls-1" cx="7.67" cy="105.18" r="6.55"/><circle class="cls-2" cx="8.8" cy="103.99" r="6.55"/><circle class="cls-3" cx="9.92" cy="102.81" r="6.55"/><circle class="cls-4" cx="11.04" cy="101.62" r="6.55"/><circle cx="28.8" cy="106.36" r="6.55"/><circle class="cls-1" cx="29.95" cy="105.18" r="6.55"/><circle class="cls-2" cx="31.1" cy="103.99" r="6.55"/><circle class="cls-3" cx="32.25" cy="102.81" r="6.55"/><circle class="cls-4" cx="33.4" cy="101.62" r="6.55"/><circle cx="28.8" cy="125.25" r="6.55"/><circle class="cls-1" cx="29.95" cy="124.08" r="6.55"/><circle class="cls-2" cx="31.1" cy="122.9" r="6.55"/><circle class="cls-3" cx="32.25" cy="121.73" r="6.55"/><circle class="cls-4" cx="33.4" cy="120.56" r="6.55"/><circle cx="6.55" cy="87.48" r="6.55"/><circle class="cls-1" cx="7.71" cy="86.31" r="6.55"/><circle class="cls-2" cx="8.87" cy="85.14" r="6.55"/><circle class="cls-3" cx="10.02" cy="83.97" r="6.55"/><circle class="cls-4" cx="11.18" cy="82.81" r="6.55"/><circle cx="73.3" cy="87.48" r="6.55"/><circle cx="95.54" cy="87.48" r="6.55"/><circle cx="51.05" cy="87.48" r="6.55"/><circle cx="117.79" cy="87.48" r="6.55"/><circle cx="73.3" cy="106.36" r="6.55"/><circle cx="95.54" cy="106.36" r="6.55"/><circle cx="51.05" cy="106.36" r="6.55"/><circle cx="73.3" cy="30.76" r="6.55"/><circle cx="51.05" cy="30.76" r="6.55"/><circle cx="73.3" cy="49.64" r="6.55"/><circle cx="51.05" cy="49.64" r="6.55"/><circle cx="117.79" cy="106.36" r="6.55"/><circle cx="73.3" cy="125.25" r="6.55"/><circle cx="95.54" cy="125.25" r="6.55"/><circle cx="51.05" cy="125.25" r="6.55"/><circle cx="117.79" cy="125.25" r="6.55"/><circle cx="28.8" cy="87.48" r="6.55"/><circle class="cls-1" cx="29.95" cy="86.38" r="6.55"/><circle class="cls-2" cx="31.1" cy="85.27" r="6.55"/><circle class="cls-3" cx="32.25" cy="84.17" r="6.55"/><circle class="cls-4" cx="33.4" cy="83.07" r="6.55"/><circle cx="6.55" cy="68.59" r="6.55"/><circle class="cls-1" cx="7.71" cy="67.46" r="6.55"/><circle class="cls-2" cx="8.87" cy="66.32" r="6.55"/><circle class="cls-3" cx="10.02" cy="65.18" r="6.55"/><circle class="cls-4" cx="11.18" cy="64.04" r="6.55"/><circle cx="28.8" cy="68.59" r="6.55"/><circle class="cls-1" cx="29.95" cy="67.46" r="6.55"/><circle class="cls-2" cx="31.1" cy="66.32" r="6.55"/><circle class="cls-3" cx="32.25" cy="65.18" r="6.55"/><circle class="cls-4" cx="33.4" cy="64.04" r="6.55"/><circle cx="51.05" cy="68.59" r="6.55"/><circle class="cls-1" cx="52.16" cy="67.4" r="6.55"/><circle class="cls-2" cx="53.27" cy="66.2" r="6.55"/><circle class="cls-3" cx="54.38" cy="65" r="6.55"/><circle class="cls-4" cx="55.49" cy="63.81" r="6.55"/><circle cx="73.3" cy="68.59" r="6.55"/><circle class="cls-1" cx="74.45" cy="67.47" r="6.55"/><circle class="cls-2" cx="75.61" cy="66.34" r="6.55"/><circle class="cls-3" cx="76.77" cy="65.22" r="6.55"/><circle class="cls-4" cx="77.92" cy="64.1" r="6.55"/><circle cx="95.54" cy="68.59" r="6.55"/><circle class="cls-1" cx="96.73" cy="67.45" r="6.55"/><circle class="cls-2" cx="97.91" cy="66.31" r="6.55"/><circle class="cls-3" cx="99.09" cy="65.17" r="6.55"/><circle class="cls-4" cx="100.27" cy="64.02" r="6.55"/><circle cx="117.79" cy="68.59" r="6.55"/><circle cx="6.55" cy="49.71" r="6.55"/><circle class="cls-1" cx="7.71" cy="48.55" r="6.55"/><circle class="cls-2" cx="8.87" cy="47.39" r="6.55"/><circle class="cls-3" cx="10.03" cy="46.23" r="6.55"/><circle class="cls-4" cx="11.19" cy="45.07" r="6.55"/><circle cx="28.8" cy="49.71" r="6.55"/><circle class="cls-1" cx="29.95" cy="48.57" r="6.55"/><circle class="cls-2" cx="31.1" cy="47.42" r="6.55"/><circle class="cls-3" cx="32.25" cy="46.28" r="6.55"/><circle class="cls-4" cx="33.4" cy="45.14" r="6.55"/><circle cx="95.54" cy="49.71" r="6.55"/><circle class="cls-1" cx="96.73" cy="48.57" r="6.55"/><circle class="cls-2" cx="97.91" cy="47.42" r="6.55"/><circle class="cls-3" cx="99.09" cy="46.28" r="6.55"/><circle class="cls-4" cx="100.27" cy="45.14" r="6.55"/><circle cx="117.79" cy="49.71" r="6.55"/><circle class="cls-1" cx="118.98" cy="48.61" r="6.55"/><circle class="cls-2" cx="120.18" cy="47.51" r="6.55"/><circle class="cls-3" cx="121.37" cy="46.41" r="6.55"/><circle class="cls-4" cx="122.56" cy="45.31" r="6.55"/><circle cx="6.55" cy="30.82" r="6.55"/><circle class="cls-1" cx="7.71" cy="29.68" r="6.55"/><circle class="cls-2" cx="8.87" cy="28.53" r="6.55"/><circle class="cls-3" cx="10.03" cy="27.38" r="6.55"/><circle class="cls-4" cx="11.19" cy="26.23" r="6.55"/><circle cx="28.8" cy="30.82" r="6.55"/><circle class="cls-1" cx="29.95" cy="29.68" r="6.55"/><circle class="cls-2" cx="31.1" cy="28.53" r="6.55"/><circle class="cls-3" cx="32.25" cy="27.38" r="6.55"/><circle class="cls-4" cx="33.4" cy="26.23" r="6.55"/><circle cx="95.54" cy="30.82" r="6.55"/><circle class="cls-1" cx="96.73" cy="29.68" r="6.55"/><circle class="cls-2" cx="97.91" cy="28.53" r="6.55"/><circle class="cls-3" cx="99.09" cy="27.38" r="6.55"/><circle class="cls-4" cx="100.27" cy="26.23" r="6.55"/><circle cx="117.79" cy="30.82" r="6.55"/><circle class="cls-1" cx="118.94" cy="29.75" r="6.55"/><circle class="cls-2" cx="120.09" cy="28.68" r="6.55"/><circle class="cls-3" cx="121.24" cy="27.61" r="6.55"/><circle class="cls-4" cx="122.4" cy="26.54" r="6.55"/><circle cx="6.55" cy="11.94" r="6.55"/><circle class="cls-1" cx="7.71" cy="10.8" r="6.55"/><circle class="cls-2" cx="8.87" cy="9.67" r="6.55"/><circle class="cls-3" cx="10.03" cy="8.53" r="6.55"/><circle class="cls-4" cx="11.19" cy="7.4" r="6.55"/><circle cx="28.8" cy="11.94" r="6.55"/><circle class="cls-1" cx="29.96" cy="10.8" r="6.55"/><circle class="cls-2" cx="31.12" cy="9.66" r="6.55"/><circle class="cls-3" cx="32.29" cy="8.51" r="6.55"/><circle class="cls-4" cx="33.45" cy="7.37" r="6.55"/><circle cx="51.05" cy="11.94" r="6.55"/><circle class="cls-1" cx="52.16" cy="10.62" r="6.55"/><circle class="cls-2" cx="53.27" cy="9.31" r="6.55"/><circle class="cls-3" cx="54.38" cy="7.99" r="6.55"/><circle class="cls-4" cx="55.49" cy="6.68" r="6.55"/><circle cx="73.3" cy="11.94" r="6.55"/><circle class="cls-1" cx="74.44" cy="10.79" r="6.55"/><circle class="cls-2" cx="75.58" cy="9.64" r="6.55"/><circle class="cls-3" cx="76.72" cy="8.48" r="6.55"/><circle class="cls-4" cx="77.86" cy="7.33" r="6.55"/><circle cx="95.54" cy="11.94" r="6.55"/><circle class="cls-1" cx="96.73" cy="10.8" r="6.55"/><circle class="cls-2" cx="97.91" cy="9.67" r="6.55"/><circle class="cls-3" cx="99.09" cy="8.53" r="6.55"/><circle class="cls-4" cx="100.27" cy="7.4" r="6.55"/><circle cx="117.79" cy="11.94" r="6.55"/></g></g></svg>