<svg xmlns="http://www.w3.org/2000/svg" viewBox="0 0 126.42 128.93"><defs><style>.cls-1{fill:#fff;stroke:#000;stroke-miterlimit:10;stroke-width:0.25px;}</style></defs><title>Element 5</title><g id="Ebene_2" data-name="Ebene 2"><g id="Ebene_1-2" data-name="Ebene 1"><circle cx="6.41" cy="122.51" r="6.41"/><circle class="cls-1" cx="10.8" cy="117.99" r="6.41"/><circle cx="6.41" cy="104.04" r="6.41"/><circle class="cls-1" cx="10.8" cy="99.4" r="6.41"/><circle cx="28.17" cy="104.04" r="6.41"/><circle class="cls-1" cx="32.67" cy="99.4" r="6.41"/><circle cx="28.17" cy="122.51" r="6.41"/><circle class="cls-1" cx="32.67" cy="117.93" r="6.41"/><circle cx="6.41" cy="85.57" r="6.41"/><circle class="cls-1" cx="10.93" cy="81" r="6.41"/><circle cx="28.17" cy="85.57" r="6.41"/><circle cx="71.7" cy="85.57" r="6.41"/><circle cx="93.46" cy="85.57" r="6.41"/><circle cx="49.93" cy="85.57" r="6.41"/><circle cx="115.22" cy="85.57" r="6.41"/><circle cx="71.7" cy="104.04" r="6.41"/><circle cx="93.46" cy="104.04" r="6.41"/><circle cx="49.93" cy="104.04" r="6.41"/><circle cx="71.7" cy="30.09" r="6.41"/><circle cx="49.93" cy="30.09" r="6.41"/><circle cx="71.7" cy="48.56" r="6.41"/><circle cx="49.93" cy="48.56" r="6.41"/><circle cx="115.22" cy="104.04" r="6.41"/><circle cx="71.7" cy="122.51" r="6.41"/><circle cx="93.46" cy="122.51" r="6.41"/><circle cx="49.93" cy="122.51" r="6.41"/><circle cx="115.22" cy="122.51" r="6.41"/><circle class="cls-1" cx="32.67" cy="81.26" r="6.41"/><circle cx="6.41" cy="67.1" r="6.41"/><circle class="cls-1" cx="10.93" cy="62.65" r="6.41"/><circle cx="28.17" cy="67.1" r="6.41"/><circle class="cls-1" cx="32.67" cy="62.65" r="6.41"/><circle cx="49.93" cy="67.1" r="6.41"/><circle class="cls-1" cx="54.28" cy="62.42" r="6.41"/><circle cx="71.7" cy="67.1" r="6.41"/><circle class="cls-1" cx="76.22" cy="62.7" r="6.41"/><circle cx="93.46" cy="67.1" r="6.41"/><circle class="cls-1" cx="98.08" cy="62.63" r="6.41"/><circle cx="115.22" cy="67.1" r="6.41"/><circle cx="6.41" cy="48.63" r="6.41"/><circle class="cls-1" cx="10.95" cy="44.09" r="6.41"/><circle cx="28.17" cy="48.63" r="6.41"/><circle class="cls-1" cx="32.67" cy="44.16" r="6.41"/><circle cx="93.46" cy="48.63" r="6.41"/><circle class="cls-1" cx="98.08" cy="44.16" r="6.41"/><circle cx="115.22" cy="48.63" r="6.41"/><circle class="cls-1" cx="119.89" cy="44.32" r="6.41"/><circle cx="6.41" cy="30.15" r="6.41"/><circle class="cls-1" cx="10.95" cy="25.66" r="6.41"/><circle cx="28.17" cy="30.15" r="6.41"/><circle class="cls-1" cx="32.67" cy="25.66" r="6.41"/><circle cx="93.46" cy="30.15" r="6.41"/><circle class="cls-1" cx="98.08" cy="25.66" r="6.41"/><circle cx="115.22" cy="30.15" r="6.41"/><circle class="cls-1" cx="119.72" cy="25.97" r="6.41"/><circle cx="6.41" cy="11.68" r="6.41"/><circle class="cls-1" cx="10.95" cy="7.24" r="6.41"/><circle cx="28.17" cy="11.68" r="6.41"/><circle class="cls-1" cx="32.72" cy="7.21" r="6.41"/><circle cx="49.93" cy="11.68" r="6.41"/><circle class="cls-1" cx="54.28" cy="6.54" r="6.41"/><circle cx="71.7" cy="11.68" r="6.41"/><circle class="cls-1" cx="76.16" cy="7.18" r="6.41"/><circle cx="93.46" cy="11.68" r="6.41"/><circle class="cls-1" cx="98.08" cy="7.24" r="6.41"/><circle cx="115.22" cy="11.68" r="6.41"/></g></g></svg>