<svg xmlns="http://www.w3.org/2000/svg" viewBox="0 0 173.05 198.63"><defs><style>.cls-1{font-size:26.9px;}.cls-1,.cls-6{font-family:Moon-Light, Moon;}.cls-2{fill:#404040;stroke-width:0.06px;}.cls-2,.cls-3,.cls-4,.cls-5{stroke:#000;stroke-miterlimit:10;}.cls-3{fill:gray;stroke-width:0.13px;}.cls-4{fill:#bfbfbf;stroke-width:0.19px;}.cls-5{fill:#fff;stroke-width:0.25px;}.cls-6{font-size:35.76px;}</style></defs><title>Element 3</title><g id="Ebene_2" data-name="Ebene 2"><g id="Ebene_1-2" data-name="Ebene 1"><text class="cls-1" transform="translate(22.74 193.14) scale(1.15 1)">LESEZEIT</text><circle cx="29.29" cy="125.25" r="6.55"/><circle class="cls-2" cx="30.41" cy="124.09" r="6.55"/><circle class="cls-3" cx="31.54" cy="122.94" r="6.55"/><circle class="cls-4" cx="32.66" cy="121.78" r="6.55"/><circle class="cls-5" cx="33.78" cy="120.62" r="6.55"/><circle cx="29.29" cy="106.36" r="6.55"/><circle class="cls-2" cx="30.41" cy="105.18" r="6.55"/><circle class="cls-3" cx="31.54" cy="103.99" r="6.55"/><circle class="cls-4" cx="32.66" cy="102.81" r="6.55"/><circle class="cls-5" cx="33.78" cy="101.62" r="6.55"/><circle cx="51.54" cy="106.36" r="6.55"/><circle class="cls-2" cx="52.69" cy="105.18" r="6.55"/><circle class="cls-3" cx="53.84" cy="103.99" r="6.55"/><circle class="cls-4" cx="54.99" cy="102.81" r="6.55"/><circle class="cls-5" cx="56.14" cy="101.62" r="6.55"/><circle cx="51.54" cy="125.25" r="6.55"/><circle class="cls-2" cx="52.69" cy="124.08" r="6.55"/><circle class="cls-3" cx="53.84" cy="122.9" r="6.55"/><circle class="cls-4" cx="54.99" cy="121.73" r="6.55"/><circle class="cls-5" cx="56.14" cy="120.56" r="6.55"/><circle cx="29.29" cy="87.48" r="6.55"/><circle class="cls-2" cx="30.45" cy="86.31" r="6.55"/><circle class="cls-3" cx="31.61" cy="85.14" r="6.55"/><circle class="cls-4" cx="32.76" cy="83.97" r="6.55"/><circle class="cls-5" cx="33.92" cy="82.81" r="6.55"/><circle cx="96.04" cy="87.48" r="6.55"/><circle cx="118.29" cy="87.48" r="6.55"/><circle cx="73.79" cy="87.48" r="6.55"/><circle cx="140.53" cy="87.48" r="6.55"/><circle cx="96.04" cy="106.36" r="6.55"/><circle cx="118.29" cy="106.36" r="6.55"/><circle cx="73.79" cy="106.36" r="6.55"/><circle cx="96.04" cy="30.76" r="6.55"/><circle cx="73.79" cy="30.76" r="6.55"/><circle cx="96.04" cy="49.64" r="6.55"/><circle cx="73.79" cy="49.64" r="6.55"/><circle cx="140.53" cy="106.36" r="6.55"/><circle cx="96.04" cy="125.25" r="6.55"/><circle cx="118.29" cy="125.25" r="6.55"/><circle cx="73.79" cy="125.25" r="6.55"/><circle cx="140.53" cy="125.25" r="6.55"/><circle cx="51.54" cy="87.48" r="6.55"/><circle class="cls-2" cx="52.69" cy="86.38" r="6.55"/><circle class="cls-3" cx="53.84" cy="85.27" r="6.55"/><circle class="cls-4" cx="54.99" cy="84.17" r="6.55"/><circle class="cls-5" cx="56.14" cy="83.07" r="6.55"/><circle cx="29.29" cy="68.59" r="6.55"/><circle class="cls-2" cx="30.45" cy="67.46" r="6.55"/><circle class="cls-3" cx="31.61" cy="66.32" r="6.55"/><circle class="cls-4" cx="32.76" cy="65.18" r="6.55"/><circle class="cls-5" cx="33.92" cy="64.04" r="6.55"/><circle cx="51.54" cy="68.59" r="6.55"/><circle class="cls-2" cx="52.69" cy="67.46" r="6.55"/><circle class="cls-3" cx="53.84" cy="66.32" r="6.55"/><circle class="cls-4" cx="54.99" cy="65.18" r="6.55"/><circle class="cls-5" cx="56.14" cy="64.04" r="6.55"/><circle cx="73.79" cy="68.59" r="6.55"/><circle class="cls-2" cx="74.9" cy="67.4" r="6.55"/><circle class="cls-3" cx="76.01" cy="66.2" r="6.55"/><circle class="cls-4" cx="77.12" cy="65" r="6.55"/><circle class="cls-5" cx="78.23" cy="63.81" r="6.55"/><circle cx="96.04" cy="68.59" r="6.55"/><circle class="cls-2" cx="97.19" cy="67.47" r="6.55"/><circle class="cls-3" cx="98.35" cy="66.34" r="6.55"/><circle class="cls-4" cx="99.51" cy="65.22" r="6.55"/><circle class="cls-5" cx="100.66" cy="64.1" r="6.55"/><circle cx="118.29" cy="68.59" r="6.55"/><circle class="cls-2" cx="119.47" cy="67.45" r="6.55"/><circle class="cls-3" cx="120.65" cy="66.31" r="6.55"/><circle class="cls-4" cx="121.83" cy="65.17" r="6.55"/><circle class="cls-5" cx="123.01" cy="64.02" r="6.55"/><circle cx="140.53" cy="68.59" r="6.55"/><circle cx="29.29" cy="49.71" r="6.55"/><circle class="cls-2" cx="30.45" cy="48.55" r="6.55"/><circle class="cls-3" cx="31.61" cy="47.39" r="6.55"/><circle class="cls-4" cx="32.77" cy="46.23" r="6.55"/><circle class="cls-5" cx="33.93" cy="45.07" r="6.55"/><circle cx="51.54" cy="49.71" r="6.55"/><circle class="cls-2" cx="52.69" cy="48.57" r="6.55"/><circle class="cls-3" cx="53.84" cy="47.42" r="6.55"/><circle class="cls-4" cx="54.99" cy="46.28" r="6.55"/><circle class="cls-5" cx="56.14" cy="45.14" r="6.55"/><circle cx="118.29" cy="49.71" r="6.55"/><circle class="cls-2" cx="119.47" cy="48.57" r="6.55"/><circle class="cls-3" cx="120.65" cy="47.42" r="6.55"/><circle class="cls-4" cx="121.83" cy="46.28" r="6.55"/><circle class="cls-5" cx="123.01" cy="45.14" r="6.55"/><circle cx="140.53" cy="49.71" r="6.55"/><circle class="cls-2" cx="141.73" cy="48.61" r="6.55"/><circle class="cls-3" cx="142.92" cy="47.51" r="6.55"/><circle class="cls-4" cx="144.11" cy="46.41" r="6.55"/><circle class="cls-5" cx="145.3" cy="45.31" r="6.55"/><circle cx="29.29" cy="30.82" r="6.55"/><circle class="cls-2" cx="30.45" cy="29.68" r="6.55"/><circle class="cls-3" cx="31.61" cy="28.53" r="6.55"/><circle class="cls-4" cx="32.77" cy="27.38" r="6.55"/><circle class="cls-5" cx="33.93" cy="26.23" r="6.55"/><circle cx="51.54" cy="30.82" r="6.55"/><circle class="cls-2" cx="52.69" cy="29.68" r="6.55"/><circle class="cls-3" cx="53.84" cy="28.53" r="6.55"/><circle class="cls-4" cx="54.99" cy="27.38" r="6.55"/><circle class="cls-5" cx="56.14" cy="26.23" r="6.55"/><circle cx="118.29" cy="30.82" r="6.55"/><circle class="cls-2" cx="119.47" cy="29.68" r="6.55"/><circle class="cls-3" cx="120.65" cy="28.53" r="6.55"/><circle class="cls-4" cx="121.83" cy="27.38" r="6.55"/><circle class="cls-5" cx="123.01" cy="26.23" r="6.55"/><circle cx="140.53" cy="30.82" r="6.55"/><circle class="cls-2" cx="141.68" cy="29.75" r="6.55"/><circle class="cls-3" cx="142.83" cy="28.68" r="6.55"/><circle class="cls-4" cx="143.98" cy="27.61" r="6.55"/><circle class="cls-5" cx="145.14" cy="26.54" r="6.55"/><circle cx="29.29" cy="11.94" r="6.55"/><circle class="cls-2" cx="30.45" cy="10.8" r="6.55"/><circle class="cls-3" cx="31.61" cy="9.67" r="6.55"/><circle class="cls-4" cx="32.77" cy="8.53" r="6.55"/><circle class="cls-5" cx="33.93" cy="7.4" r="6.55"/><circle cx="51.54" cy="11.94" r="6.55"/><circle class="cls-2" cx="52.7" cy="10.8" r="6.55"/><circle class="cls-3" cx="53.86" cy="9.66" r="6.55"/><circle class="cls-4" cx="55.03" cy="8.51" r="6.55"/><circle class="cls-5" cx="56.19" cy="7.37" r="6.55"/><circle cx="73.79" cy="11.94" r="6.55"/><circle class="cls-2" cx="74.9" cy="10.62" r="6.55"/><circle class="cls-3" cx="76.01" cy="9.31" r="6.55"/><circle class="cls-4" cx="77.12" cy="7.99" r="6.55"/><circle class="cls-5" cx="78.23" cy="6.68" r="6.55"/><circle cx="96.04" cy="11.94" r="6.55"/><circle class="cls-2" cx="97.18" cy="10.79" r="6.55"/><circle class="cls-3" cx="98.32" cy="9.64" r="6.55"/><circle class="cls-4" cx="99.46" cy="8.48" r="6.55"/><circle class="cls-5" cx="100.6" cy="7.33" r="6.55"/><circle cx="118.29" cy="11.94" r="6.55"/><circle class="cls-2" cx="119.47" cy="10.8" r="6.55"/><circle class="cls-3" cx="120.65" cy="9.67" r="6.55"/><circle class="cls-4" cx="121.83" cy="8.53" r="6.55"/><circle class="cls-5" cx="123.01" cy="7.4" r="6.55"/><circle cx="140.53" cy="11.94" r="6.55"/><text class="cls-6" transform="translate(0 166.24) scale(1.02 1)">proprius</text></g></g></svg>