<svg xmlns="http://www.w3.org/2000/svg" viewBox="0 0 388.68 128.59"><defs><style>.cls-1{font-size:40px;}.cls-1,.cls-7{font-family:Moon-Light, Moon;}.cls-2{fill:#333;stroke-width:0.05px;}.cls-2,.cls-3,.cls-4,.cls-5,.cls-6{stroke:#000;stroke-miterlimit:10;}.cls-3{fill:#666;stroke-width:0.1px;}.cls-4{fill:#999;stroke-width:0.15px;}.cls-5{fill:#ccc;stroke-width:0.2px;}.cls-6{fill:#fff;stroke-width:0.25px;}.cls-7{font-size:53.72px;}</style></defs><title>Element 2</title><g id="Ebene_2" data-name="Ebene 2"><g id="Ebene_1-2" data-name="Ebene 1"><text class="cls-1" transform="translate(134.64 120.42) scale(1.13 1)">LESEZEIT</text><circle cx="6.3" cy="120.42" r="6.3"/><circle class="cls-2" cx="7.16" cy="119.54" r="6.3"/><circle class="cls-3" cx="8.03" cy="118.65" r="6.3"/><circle class="cls-4" cx="8.89" cy="117.76" r="6.3"/><circle class="cls-5" cx="9.75" cy="116.87" r="6.3"/><circle class="cls-6" cx="10.61" cy="115.98" r="6.3"/><circle cx="6.3" cy="102.27" r="6.3"/><circle class="cls-2" cx="7.16" cy="101.36" r="6.3"/><circle class="cls-3" cx="8.03" cy="100.44" r="6.3"/><circle class="cls-4" cx="8.89" cy="99.53" r="6.3"/><circle class="cls-5" cx="9.75" cy="98.62" r="6.3"/><circle class="cls-6" cx="10.61" cy="97.71" r="6.3"/><circle cx="27.69" cy="102.27" r="6.3"/><circle class="cls-2" cx="28.58" cy="101.36" r="6.3"/><circle class="cls-3" cx="29.46" cy="100.44" r="6.3"/><circle class="cls-4" cx="30.34" cy="99.53" r="6.3"/><circle class="cls-5" cx="31.23" cy="98.62" r="6.3"/><circle class="cls-6" cx="32.11" cy="97.71" r="6.3"/><circle cx="27.69" cy="120.42" r="6.3"/><circle class="cls-2" cx="28.58" cy="119.52" r="6.3"/><circle class="cls-3" cx="29.46" cy="118.62" r="6.3"/><circle class="cls-4" cx="30.34" cy="117.72" r="6.3"/><circle class="cls-5" cx="31.23" cy="116.82" r="6.3"/><circle class="cls-6" cx="32.11" cy="115.92" r="6.3"/><circle cx="6.3" cy="84.11" r="6.3"/><circle class="cls-2" cx="7.19" cy="83.21" r="6.3"/><circle class="cls-3" cx="8.08" cy="82.31" r="6.3"/><circle class="cls-4" cx="8.97" cy="81.42" r="6.3"/><circle class="cls-5" cx="9.86" cy="80.52" r="6.3"/><circle class="cls-6" cx="10.75" cy="79.62" r="6.3"/><circle cx="70.47" cy="84.11" r="6.3"/><circle cx="91.86" cy="84.11" r="6.3"/><circle cx="49.08" cy="84.11" r="6.3"/><circle cx="113.25" cy="84.11" r="6.3"/><circle cx="70.47" cy="102.27" r="6.3"/><circle cx="91.86" cy="102.27" r="6.3"/><circle cx="49.08" cy="102.27" r="6.3"/><circle cx="70.47" cy="29.58" r="6.3"/><circle cx="49.08" cy="29.58" r="6.3"/><circle cx="70.47" cy="47.73" r="6.3"/><circle cx="49.08" cy="47.73" r="6.3"/><circle cx="113.25" cy="102.27" r="6.3"/><circle cx="70.47" cy="120.42" r="6.3"/><circle cx="91.86" cy="120.42" r="6.3"/><circle cx="49.08" cy="120.42" r="6.3"/><circle cx="113.25" cy="120.42" r="6.3"/><circle cx="27.69" cy="84.11" r="6.3"/><circle class="cls-2" cx="28.58" cy="83.26" r="6.3"/><circle class="cls-3" cx="29.46" cy="82.42" r="6.3"/><circle class="cls-4" cx="30.34" cy="81.57" r="6.3"/><circle class="cls-5" cx="31.23" cy="80.72" r="6.3"/><circle class="cls-6" cx="32.11" cy="79.87" r="6.3"/><circle cx="6.3" cy="65.95" r="6.3"/><circle class="cls-2" cx="7.19" cy="65.08" r="6.3"/><circle class="cls-3" cx="8.08" cy="64.2" r="6.3"/><circle class="cls-4" cx="8.97" cy="63.33" r="6.3"/><circle class="cls-5" cx="9.86" cy="62.46" r="6.3"/><circle class="cls-6" cx="10.75" cy="61.58" r="6.3"/><circle cx="27.69" cy="65.95" r="6.3"/><circle class="cls-2" cx="28.58" cy="65.08" r="6.3"/><circle class="cls-3" cx="29.46" cy="64.2" r="6.3"/><circle class="cls-4" cx="30.34" cy="63.33" r="6.3"/><circle class="cls-5" cx="31.23" cy="62.46" r="6.3"/><circle class="cls-6" cx="32.11" cy="61.58" r="6.3"/><circle cx="49.08" cy="65.95" r="6.3"/><circle class="cls-2" cx="49.94" cy="65.03" r="6.3"/><circle class="cls-3" cx="50.79" cy="64.11" r="6.3"/><circle class="cls-4" cx="51.64" cy="63.19" r="6.3"/><circle class="cls-5" cx="52.5" cy="62.27" r="6.3"/><circle class="cls-6" cx="53.35" cy="61.35" r="6.3"/><circle cx="70.47" cy="65.95" r="6.3"/><circle class="cls-2" cx="71.36" cy="65.09" r="6.3"/><circle class="cls-3" cx="72.25" cy="64.22" r="6.3"/><circle class="cls-4" cx="73.14" cy="63.36" r="6.3"/><circle class="cls-5" cx="74.03" cy="62.5" r="6.3"/><circle class="cls-6" cx="74.92" cy="61.63" r="6.3"/><circle cx="91.86" cy="65.95" r="6.3"/><circle class="cls-2" cx="92.77" cy="65.08" r="6.3"/><circle class="cls-3" cx="93.68" cy="64.2" r="6.3"/><circle class="cls-4" cx="94.59" cy="63.32" r="6.3"/><circle class="cls-5" cx="95.49" cy="62.44" r="6.3"/><circle class="cls-6" cx="96.4" cy="61.56" r="6.3"/><circle cx="113.25" cy="65.95" r="6.3"/><circle cx="6.3" cy="47.8" r="6.3"/><circle class="cls-2" cx="7.19" cy="46.9" r="6.3"/><circle class="cls-3" cx="8.09" cy="46.01" r="6.3"/><circle class="cls-4" cx="8.98" cy="45.12" r="6.3"/><circle class="cls-5" cx="9.87" cy="44.23" r="6.3"/><circle class="cls-6" cx="10.76" cy="43.34" r="6.3"/><circle cx="27.69" cy="47.8" r="6.3"/><circle class="cls-2" cx="28.58" cy="46.92" r="6.3"/><circle class="cls-3" cx="29.46" cy="46.04" r="6.3"/><circle class="cls-4" cx="30.34" cy="45.16" r="6.3"/><circle class="cls-5" cx="31.23" cy="44.28" r="6.3"/><circle class="cls-6" cx="32.11" cy="43.4" r="6.3"/><circle cx="91.86" cy="47.8" r="6.3"/><circle class="cls-2" cx="92.77" cy="46.92" r="6.3"/><circle class="cls-3" cx="93.68" cy="46.04" r="6.3"/><circle class="cls-4" cx="94.59" cy="45.16" r="6.3"/><circle class="cls-5" cx="95.49" cy="44.28" r="6.3"/><circle class="cls-6" cx="96.4" cy="43.4" r="6.3"/><circle cx="113.25" cy="47.8" r="6.3"/><circle class="cls-2" cx="114.17" cy="46.95" r="6.3"/><circle class="cls-3" cx="115.09" cy="46.1" r="6.3"/><circle class="cls-4" cx="116" cy="45.26" r="6.3"/><circle class="cls-5" cx="116.92" cy="44.41" r="6.3"/><circle class="cls-6" cx="117.84" cy="43.56" r="6.3"/><circle cx="6.3" cy="29.64" r="6.3"/><circle class="cls-2" cx="7.19" cy="28.76" r="6.3"/><circle class="cls-3" cx="8.09" cy="27.87" r="6.3"/><circle class="cls-4" cx="8.98" cy="26.99" r="6.3"/><circle class="cls-5" cx="9.87" cy="26.11" r="6.3"/><circle class="cls-6" cx="10.76" cy="25.23" r="6.3"/><circle cx="27.69" cy="29.64" r="6.3"/><circle class="cls-2" cx="28.58" cy="28.76" r="6.3"/><circle class="cls-3" cx="29.46" cy="27.87" r="6.3"/><circle class="cls-4" cx="30.34" cy="26.99" r="6.3"/><circle class="cls-5" cx="31.23" cy="26.11" r="6.3"/><circle class="cls-6" cx="32.11" cy="25.23" r="6.3"/><circle cx="91.86" cy="29.64" r="6.3"/><circle class="cls-2" cx="92.77" cy="28.76" r="6.3"/><circle class="cls-3" cx="93.68" cy="27.87" r="6.3"/><circle class="cls-4" cx="94.59" cy="26.99" r="6.3"/><circle class="cls-5" cx="95.49" cy="26.11" r="6.3"/><circle class="cls-6" cx="96.4" cy="25.23" r="6.3"/><circle cx="113.25" cy="29.64" r="6.3"/><circle class="cls-2" cx="114.14" cy="28.82" r="6.3"/><circle class="cls-3" cx="115.02" cy="27.99" r="6.3"/><circle class="cls-4" cx="115.91" cy="27.17" r="6.3"/><circle class="cls-5" cx="116.79" cy="26.35" r="6.3"/><circle class="cls-6" cx="117.68" cy="25.53" r="6.3"/><circle cx="6.3" cy="11.48" r="6.3"/><circle class="cls-2" cx="7.19" cy="10.61" r="6.3"/><circle class="cls-3" cx="8.09" cy="9.74" r="6.3"/><circle class="cls-4" cx="8.98" cy="8.86" r="6.3"/><circle class="cls-5" cx="9.87" cy="7.99" r="6.3"/><circle class="cls-6" cx="10.76" cy="7.12" r="6.3"/><circle cx="27.69" cy="11.48" r="6.3"/><circle class="cls-2" cx="28.58" cy="10.61" r="6.3"/><circle class="cls-3" cx="29.48" cy="9.73" r="6.3"/><circle class="cls-4" cx="30.37" cy="8.85" r="6.3"/><circle class="cls-5" cx="31.27" cy="7.97" r="6.3"/><circle class="cls-6" cx="32.16" cy="7.09" r="6.3"/><circle cx="49.08" cy="11.48" r="6.3"/><circle class="cls-2" cx="49.94" cy="10.47" r="6.3"/><circle class="cls-3" cx="50.79" cy="9.46" r="6.3"/><circle class="cls-4" cx="51.64" cy="8.45" r="6.3"/><circle class="cls-5" cx="52.5" cy="7.44" r="6.3"/><circle class="cls-6" cx="53.35" cy="6.43" r="6.3"/><circle cx="70.47" cy="11.48" r="6.3"/><circle class="cls-2" cx="71.35" cy="10.6" r="6.3"/><circle class="cls-3" cx="72.23" cy="9.71" r="6.3"/><circle class="cls-4" cx="73.1" cy="8.83" r="6.3"/><circle class="cls-5" cx="73.98" cy="7.94" r="6.3"/><circle class="cls-6" cx="74.86" cy="7.05" r="6.3"/><circle cx="91.86" cy="11.48" r="6.3"/><circle class="cls-2" cx="92.77" cy="10.61" r="6.3"/><circle class="cls-3" cx="93.68" cy="9.74" r="6.3"/><circle class="cls-4" cx="94.59" cy="8.86" r="6.3"/><circle class="cls-5" cx="95.49" cy="7.99" r="6.3"/><circle class="cls-6" cx="96.4" cy="7.12" r="6.3"/><circle cx="113.25" cy="11.48" r="6.3"/><text class="cls-7" transform="translate(133.15 77.64)">proprius</text></g></g></svg>